<?xml version="1.0" encoding="utf-8"?>
<!-- Generator: Adobe Illustrator 16.0.3, SVG Export Plug-In . SVG Version: 6.00 Build 0)  -->
<!DOCTYPE svg PUBLIC "-//W3C//DTD SVG 1.1//EN" "http://www.w3.org/Graphics/SVG/1.1/DTD/svg11.dtd">
<svg version="1.1" id="图层_1" xmlns="http://www.w3.org/2000/svg" xmlns:xlink="http://www.w3.org/1999/xlink" x="0px" y="0px"
	 width="32px" height="32px" viewBox="0 0 32 32" enable-background="new 0 0 32 32" xml:space="preserve">
<path fill="#EFEFEF" d="M16.759,12.19H12.19v1.526h3.052V24.38H12.19v1.525h7.619V24.38h-3.051V12.19z M16,9.142
	c0.841,0,1.526-0.685,1.526-1.521c0-0.841-0.686-1.526-1.526-1.526s-1.526,0.685-1.526,1.526C14.474,8.458,15.159,9.142,16,9.142z
	 M16,0C7.181,0,0,7.176,0,16c0,8.824,7.181,16,16,16s16-7.176,16-16C32,7.176,24.819,0,16,0z M16,30.479
	C8.021,30.479,1.526,23.982,1.526,16C1.526,8.018,8.021,1.526,16,1.526S30.474,8.018,30.474,16
	C30.474,23.982,23.979,30.479,16,30.479z"/>
</svg>
