<?xml version="1.0" encoding="utf-8"?>
<!-- Generator: Adobe Illustrator 16.0.3, SVG Export Plug-In . SVG Version: 6.00 Build 0)  -->
<!DOCTYPE svg PUBLIC "-//W3C//DTD SVG 1.1//EN" "http://www.w3.org/Graphics/SVG/1.1/DTD/svg11.dtd">
<svg version="1.1" id="图层_1" xmlns="http://www.w3.org/2000/svg" xmlns:xlink="http://www.w3.org/1999/xlink" x="0px" y="0px"
	 width="32px" height="32px" viewBox="0 0 32 32" enable-background="new 0 0 32 32" xml:space="preserve">
<path fill="#EFEFEF" d="M10.342,22.284c0.198,0,0.391-0.082,0.542-0.223l5.115-5.12l5.12,5.12c0.151,0.141,0.345,0.223,0.537,0.223
	s0.395-0.082,0.535-0.223c0.303-0.302,0.303-0.779,0-1.082l-5.11-5.112l4.848-4.85c0.293-0.298,0.293-0.781,0-1.078
	c-0.303-0.297-0.78-0.297-1.082,0l-4.847,4.847l-4.847-4.847c-0.297-0.297-0.781-0.297-1.078,0c-0.297,0.297-0.297,0.78,0,1.078
	l4.852,4.85l-5.12,5.112c-0.297,0.303-0.297,0.78,0,1.082C9.952,22.202,10.149,22.284,10.342,22.284z"/>
<path fill="#EFEFEF" d="M0,16c0,8.679,7.328,16,16,16c8.678,0,16-7.321,16-16c0-8.672-7.322-16-16-16C7.328,0,0,7.328,0,16z
	 M16,1.521c7.847,0,14.475,6.633,14.475,14.479c0,7.847-6.628,14.474-14.475,14.474C8.154,30.474,1.521,23.847,1.521,16
	C1.521,8.154,8.154,1.521,16,1.521z"/>
</svg>
