<?xml version="1.0" encoding="utf-8"?>
<!-- Generator: Adobe Illustrator 16.0.3, SVG Export Plug-In . SVG Version: 6.00 Build 0)  -->
<!DOCTYPE svg PUBLIC "-//W3C//DTD SVG 1.1//EN" "http://www.w3.org/Graphics/SVG/1.1/DTD/svg11.dtd">
<svg version="1.1" id="图层_1" xmlns="http://www.w3.org/2000/svg" xmlns:xlink="http://www.w3.org/1999/xlink" x="0px" y="0px"
	 width="32px" height="32px" viewBox="0 0 32 32" enable-background="new 0 0 32 32" xml:space="preserve">
<path fill="#EFEFEF" d="M27.752,16.447c0.927-0.889,1.501-2.137,1.501-3.518c0-2.693-2.188-4.879-4.875-4.879
	c-2.695,0-4.884,2.187-4.884,4.879c0,1.391,0.59,2.649,1.526,3.54c-1.031,0.514-1.942,1.262-2.647,2.186
	c-0.834-0.725-1.766-1.324-2.775-1.782c1.559-1.295,2.56-3.258,2.56-5.445c0-3.899-3.172-7.072-7.071-7.072
	c-3.897,0-7.071,3.173-7.071,7.072c0,2.188,1.002,4.15,2.568,5.451C2.648,18.635,0,22.6,0,26.971c0,0.375,0.3,0.674,0.672,0.674
	c0.373,0,0.673-0.299,0.673-0.674c0-4.145,2.718-7.881,6.641-9.199c0.939,0.463,1.986,0.727,3.103,0.727
	c1.115,0,2.171-0.264,3.107-0.727c3.904,1.305,6.617,5.047,6.617,9.199c0,0.375,0.296,0.674,0.673,0.674
	c0.367,0,0.673-0.299,0.673-0.674c0-2.766-1.059-5.371-2.822-7.357c0.763-1.043,1.815-1.83,3.021-2.248
	c0.616,0.281,1.302,0.445,2.021,0.445c0.729,0,1.416-0.168,2.044-0.453c2.49,0.844,4.222,3.234,4.222,5.9
	c0,0.367,0.307,0.674,0.675,0.674c0.369,0,0.682-0.307,0.682-0.674C32,20.348,30.297,17.701,27.752,16.447z M8.555,16.555
	c-0.094-0.097-0.21-0.159-0.346-0.188c-1.702-0.992-2.845-2.834-2.845-4.939c0-3.159,2.563-5.726,5.724-5.726
	c3.155,0,5.726,2.567,5.726,5.726c0,2.119-1.162,3.973-2.876,4.962c-0.093,0.024-0.18,0.073-0.253,0.135
	c-0.782,0.401-1.662,0.63-2.597,0.63C10.178,17.154,9.322,16.934,8.555,16.555z M22.742,16.06c-0.02-0.013-0.042-0.021-0.062-0.029
	c-1.095-0.6-1.844-1.766-1.844-3.102c0-1.953,1.589-3.536,3.541-3.536c1.941,0,3.529,1.583,3.529,3.536
	c0,1.946-1.588,3.536-3.529,3.536C23.784,16.464,23.225,16.316,22.742,16.06z"/>
</svg>
