<?xml version="1.0" encoding="utf-8"?>
<!-- Generator: Adobe Illustrator 16.0.3, SVG Export Plug-In . SVG Version: 6.00 Build 0)  -->
<!DOCTYPE svg PUBLIC "-//W3C//DTD SVG 1.1//EN" "http://www.w3.org/Graphics/SVG/1.1/DTD/svg11.dtd">
<svg version="1.1" id="图层_1" xmlns="http://www.w3.org/2000/svg" xmlns:xlink="http://www.w3.org/1999/xlink" x="0px" y="0px"
	 width="32px" height="32px" viewBox="0 0 32 32" enable-background="new 0 0 32 32" xml:space="preserve">
<path fill="#EFEFEF" d="M30.715,32c0.428,0,0.773-0.354,0.773-0.773c0-6.399-3.902-12.156-9.646-14.495
	c2.09-1.736,3.426-4.352,3.426-7.272C25.268,4.242,21.021,0,15.805,0C10.59,0,6.346,4.242,6.346,9.459
	c0,2.922,1.335,5.537,3.423,7.275c-5.59,2.298-9.258,7.938-9.258,14.492c0,0.42,0.345,0.773,0.771,0.773
	c0.43,0,0.774-0.354,0.774-0.773c0-6.302,3.727-11.658,9.298-13.428c1.327,0.712,2.845,1.118,4.451,1.118
	c1.611,0,3.125-0.406,4.455-1.118c5.709,1.809,9.68,7.293,9.68,13.428C29.939,31.647,30.283,32,30.715,32z M7.892,9.459
	c0-4.365,3.549-7.914,7.914-7.914c4.365,0,7.912,3.549,7.912,7.914c0,4.362-3.547,7.916-7.912,7.916
	C11.441,17.375,7.892,13.821,7.892,9.459z"/>
</svg>
