<?xml version="1.0" encoding="utf-8"?>
<!-- Generator: Adobe Illustrator 16.0.3, SVG Export Plug-In . SVG Version: 6.00 Build 0)  -->
<!DOCTYPE svg PUBLIC "-//W3C//DTD SVG 1.1//EN" "http://www.w3.org/Graphics/SVG/1.1/DTD/svg11.dtd">
<svg version="1.1" id="图层_1" xmlns="http://www.w3.org/2000/svg" xmlns:xlink="http://www.w3.org/1999/xlink" x="0px" y="0px"
	 width="32px" height="32px" viewBox="0 0 32 32" enable-background="new 0 0 32 32" xml:space="preserve">
<path fill="#EFEFEF" d="M27.911,0H4.091C3.307,0,2.668,0.637,2.668,1.421v29.161C2.668,31.364,3.306,32,4.091,32h23.82
	c0.784,0,1.421-0.634,1.421-1.418V1.421C29.332,0.639,28.696,0,27.911,0z M22.071,20.588l-5.386,5.088l-1.015,0.952
	c-0.139,0.13-0.308,0.195-0.506,0.195s-0.367-0.065-0.507-0.195l-1.01-0.952l-2.695-2.547c-0.139-0.13-0.207-0.288-0.207-0.477
	c0-0.188,0.068-0.346,0.207-0.477l1.013-0.957c0.14-0.131,0.309-0.195,0.505-0.195c0.199,0,0.368,0.064,0.508,0.195l2.187,2.07
	l4.881-4.611c0.142-0.136,0.309-0.201,0.504-0.201c0.203,0,0.369,0.065,0.512,0.201l1.01,0.952c0.136,0.129,0.209,0.288,0.209,0.476
	S22.207,20.457,22.071,20.588z M24.699,14.166H7.303c-0.567,0-1.024-0.472-1.024-1.052c0-0.579,0.457-1.049,1.024-1.049h17.396
	c0.565,0,1.024,0.47,1.024,1.049C25.724,13.693,25.265,14.166,24.699,14.166z M24.699,8.919H7.303c-0.567,0-1.024-0.47-1.024-1.049
	s0.457-1.052,1.024-1.052h17.396c0.565,0,1.024,0.473,1.024,1.052S25.265,8.919,24.699,8.919z"/>
</svg>
