<?xml version="1.0" encoding="utf-8"?>
<!-- Generator: Adobe Illustrator 16.0.3, SVG Export Plug-In . SVG Version: 6.00 Build 0)  -->
<!DOCTYPE svg PUBLIC "-//W3C//DTD SVG 1.1//EN" "http://www.w3.org/Graphics/SVG/1.1/DTD/svg11.dtd">
<svg version="1.1" id="图层_1" xmlns="http://www.w3.org/2000/svg" xmlns:xlink="http://www.w3.org/1999/xlink" x="0px" y="0px"
	 width="32px" height="32px" viewBox="0 0 32 32" enable-background="new 0 0 32 32" xml:space="preserve">
<g>
	<path fill="#EFEFEF" d="M3.842,5.175h13.976c0.409,0,0.747-0.332,0.747-0.742c0-0.414-0.338-0.746-0.747-0.746H3.842
		C2.319,3.687,0.3,4.015,0.3,6.854v21.982C0.3,31.678,2.319,32,3.842,32h21.236c1.522,0,3.547-0.322,3.547-3.163V13.001
		c0-0.41-0.338-0.747-0.747-0.747s-0.747,0.337-0.747,0.747v15.836c0,1.159-0.301,1.681-2.053,1.681H3.842
		c-1.758,0-2.054-0.521-2.054-1.681V6.854C1.788,5.696,2.084,5.175,3.842,5.175z"/>
	<path fill="#EFEFEF" d="M27.194,0c-0.175,0-0.256,0.018-0.256,0.018c-0.148,0.029-0.305,0.105-0.404,0.206l-5.151,5.151
		L10.685,15.971c-0.111,0.115-0.187,0.264-0.213,0.421l-0.711,4.544c-0.04,0.237,0.036,0.467,0.203,0.642
		c0.141,0.139,0.332,0.224,0.533,0.224c0.032,0,0.064-0.001,0.096-0.004l4.338-0.576c0.054,0.018,0.11,0.022,0.165,0.022
		c0.163,0,0.323-0.056,0.458-0.159c0.032-0.027,0.059-0.057,0.088-0.088c0.016-0.006,0.027-0.01,0.037-0.027L31.476,5.17
		c0.105-0.109,0.184-0.25,0.211-0.404c0.018-0.155,0.199-1.563-1.492-3.255C28.828,0.146,27.639,0,27.194,0z M11.922,19.623
		c-0.138-0.133-0.271-0.231-0.397-0.313l0.298-1.906c0.358,0.123,0.879,0.398,1.536,1.056c0.541,0.537,0.79,1.006,0.904,1.349
		l-1.969,0.255C12.198,19.929,12.076,19.777,11.922,19.623z M15.543,18.997c-0.209-0.474-0.558-1.024-1.127-1.594
		c-0.685-0.684-1.288-1.062-1.771-1.278l9.783-9.692l4.932-4.93c0.328,0.047,0.967,0.248,1.777,1.06
		c0.819,0.824,1.022,1.472,1.063,1.777L15.543,18.997z"/>
</g>
</svg>
