<?xml version="1.0" encoding="utf-8"?>
<!-- Generator: Adobe Illustrator 16.0.3, SVG Export Plug-In . SVG Version: 6.00 Build 0)  -->
<!DOCTYPE svg PUBLIC "-//W3C//DTD SVG 1.1//EN" "http://www.w3.org/Graphics/SVG/1.1/DTD/svg11.dtd">
<svg version="1.1" id="图层_1" xmlns="http://www.w3.org/2000/svg" xmlns:xlink="http://www.w3.org/1999/xlink" x="0px" y="0px"
	 width="32px" height="32px" viewBox="0 0 32 32" enable-background="new 0 0 32 32" xml:space="preserve">
<g>
	<path fill="#EFEFEF" d="M22.68,17.357c-4.043,0-7.325,3.283-7.325,7.32c0,4.038,3.282,7.322,7.325,7.322
		c4.036,0,7.319-3.284,7.319-7.322C29.999,20.641,26.716,17.357,22.68,17.357z M22.68,30.669c-3.305,0-5.992-2.687-5.992-5.991
		c0-3.302,2.688-5.99,5.992-5.99c3.3,0,5.986,2.688,5.986,5.99C28.666,27.982,25.979,30.669,22.68,30.669z"/>
	<path fill="#EFEFEF" d="M27.137,21.547c-0.258-0.262-0.677-0.262-0.94,0L21.345,26.4l-2.19-2.193c-0.259-0.258-0.684-0.258-0.94,0
		c-0.265,0.262-0.265,0.684,0,0.943l2.661,2.662c0.13,0.129,0.304,0.192,0.47,0.192c0.168,0,0.342-0.063,0.47-0.192l5.322-5.326
		C27.4,22.229,27.4,21.807,27.137,21.547z"/>
	<path fill="#EFEFEF" d="M16.646,30.62H3.998c-0.369,0-0.664-0.302-0.664-0.667V4.659c0-0.366,0.295-0.664,0.664-0.664h3.325v0.664
		c0,0.369,0.302,0.667,0.67,0.667h11.979c0.368,0,0.663-0.298,0.663-0.667V3.995h3.331c0.369,0,0.663,0.298,0.663,0.664V15.31
		c0,0.366,0.302,0.664,0.664,0.664c0.369,0,0.67-0.297,0.67-0.664V4.659c0-1.099-0.897-1.997-1.997-1.997h-3.454
		c-0.271-0.772-1.007-1.331-1.875-1.331H16.28C15.811,0.519,14.938,0,13.979,0c-0.952,0-1.825,0.519-2.295,1.331H9.32
		c-0.862,0-1.597,0.558-1.873,1.331H3.998c-1.1,0-1.997,0.898-1.997,1.997v25.294c0,1.1,0.897,1.997,1.997,1.997h12.647
		c0.364,0,0.665-0.298,0.665-0.666C17.311,30.917,17.01,30.62,16.646,30.62z M9.32,2.662h2.784c0.28,0,0.532-0.177,0.626-0.442
		c0.196-0.531,0.697-0.888,1.249-0.888c0.557,0,1.059,0.357,1.248,0.888c0.094,0.266,0.346,0.442,0.626,0.442h2.784
		c0.369,0,0.67,0.298,0.67,0.667v0.667H8.657V3.329C8.657,2.959,8.958,2.662,9.32,2.662z"/>
</g>
</svg>
