<?xml version="1.0" encoding="utf-8"?>
<!-- Generator: Adobe Illustrator 16.0.3, SVG Export Plug-In . SVG Version: 6.00 Build 0)  -->
<!DOCTYPE svg PUBLIC "-//W3C//DTD SVG 1.1//EN" "http://www.w3.org/Graphics/SVG/1.1/DTD/svg11.dtd">
<svg version="1.1" id="图层_1" xmlns="http://www.w3.org/2000/svg" xmlns:xlink="http://www.w3.org/1999/xlink" x="0px" y="0px"
	 width="32px" height="32px" viewBox="0 0 32 32" enable-background="new 0 0 32 32" xml:space="preserve">
<g>
	<path fill="#EFEFEF" d="M20.007,31.771c-0.277,0.305-0.73,0.305-1,0l-6.257-6.963c-0.275-0.309-0.266-0.795,0.026-1.082
		l1.074-1.076c0.289-0.287,0.762-0.285,1.046,0.01l4.081,4.217c0.286,0.291,0.746,0.287,1.024-0.02l7.731-8.473
		c0.276-0.307,0.749-0.33,1.059-0.051l0.949,0.748c1.034,1.035,1.118,1.145,0,2.258L20.007,31.771z"/>
	<path fill="#EFEFEF" d="M13.872,4.518c-1.126,0-1.126,2.259-1.126,2.259h2.258C15.004,6.776,15.004,4.518,13.872,4.518z"/>
	<path fill="#EFEFEF" d="M24.039,4.518h-4.519C19.325,2.26,17.259,0,13.872,0c-3.386,0-5.45,2.26-5.643,4.518H3.712
		c0,0-2.259,0-2.259,2.259c0,1.838,0,20.327,0,22.581c0,2.264,2.259,2.264,2.259,2.264h12.711l-5.648-5.617
		c-0.95-1.039-0.43-2.375,0.565-3.369l1.693-1.688c0.491-0.488,1.004-0.559,1.693-0.559c0.7,0,1.772,0.633,2.261,1.129l2.587,2.83
		l6.718-7.248c0,0,0-8.065,0-10.323C26.292,4.518,24.039,4.518,24.039,4.518z M7.097,18.068H5.97c0,0-1.131,0-1.131-1.131
		s1.131-1.131,1.131-1.131h1.127c0,0,1.132,0,1.132,1.131S7.097,18.068,7.097,18.068z M7.097,13.552H5.97c0,0-1.131,0-1.131-1.133
		c0-1.126,1.131-1.126,1.131-1.126h1.127c0,0,1.132,0,1.132,1.126C8.229,13.552,7.097,13.552,7.097,13.552z M21.774,18.068H11.614
		c0,0-1.127,0-1.127-1.131s1.127-1.131,1.127-1.131h10.161c0,0,1.131,0,1.131,1.131S21.774,18.068,21.774,18.068z M21.774,13.552
		H11.614c0,0-1.127,0-1.127-1.133c0-1.126,1.127-1.126,1.127-1.126h10.161c0,0,1.131,0,1.131,1.126
		C22.905,13.552,21.774,13.552,21.774,13.552z M3.712,9.034c0,0,0-2.258,2.258-2.258c2.259,0,4.517,0,4.517,0s0-4.377,3.386-4.377
		c3.387,0,3.446,4.377,3.387,4.377c0,0,2.262,0,4.516,0c2.265,0,2.265,2.258,2.265,2.258H3.712z"/>
</g>
</svg>
