<?xml version="1.0" encoding="utf-8"?>
<!-- Generator: Adobe Illustrator 16.0.3, SVG Export Plug-In . SVG Version: 6.00 Build 0)  -->
<!DOCTYPE svg PUBLIC "-//W3C//DTD SVG 1.1//EN" "http://www.w3.org/Graphics/SVG/1.1/DTD/svg11.dtd">
<svg version="1.1" id="图层_1" xmlns="http://www.w3.org/2000/svg" xmlns:xlink="http://www.w3.org/1999/xlink" x="0px" y="0px"
	 width="32px" height="32px" viewBox="0 0 32 32" enable-background="new 0 0 32 32" xml:space="preserve">
<path fill="#EFEFEF" d="M22.898,10.414l-9.561,9.555l-4.235-4.229c-0.297-0.301-0.78-0.301-1.077,0c-0.298,0.294-0.298,0.78,0,1.073
	l4.773,4.775c0.144,0.147,0.335,0.222,0.539,0.222c0.2,0,0.396-0.074,0.537-0.222l10.096-10.097c0.303-0.297,0.303-0.78,0-1.077
	C23.679,10.116,23.19,10.116,22.898,10.414z"/>
<path fill="#EFEFEF" d="M16,0C7.328,0,0,7.328,0,16c0,8.679,7.328,16,16,16c8.678,0,16-7.321,16-16C32,7.328,24.678,0,16,0z
	 M16,30.474C8.154,30.474,1.521,23.847,1.521,16C1.521,8.154,8.154,1.521,16,1.521c7.847,0,14.475,6.633,14.475,14.479
	C30.475,23.847,23.847,30.474,16,30.474z"/>
</svg>
