<?xml version="1.0" encoding="utf-8"?>
<!-- Generator: Adobe Illustrator 16.0.3, SVG Export Plug-In . SVG Version: 6.00 Build 0)  -->
<!DOCTYPE svg PUBLIC "-//W3C//DTD SVG 1.1//EN" "http://www.w3.org/Graphics/SVG/1.1/DTD/svg11.dtd">
<svg version="1.1" id="图层_1" xmlns="http://www.w3.org/2000/svg" xmlns:xlink="http://www.w3.org/1999/xlink" x="0px" y="0px"
	 width="32px" height="32px" viewBox="0 0 32 32" enable-background="new 0 0 32 32" xml:space="preserve">
<g>
	<path fill="#EFEFEF" d="M28.817,3.558H11.876c-1.702,0-3.088,1.425-3.088,3.127v10.649c0,1.707,1.392,3.103,3.104,3.103h8.498
		v2.782c0,0.796,0.69,1.449,1.498,1.449c0.39,0,0.771-0.153,1.037-0.422l3.865-3.81h2.005C30.563,20.437,32,19,32,17.234V6.78
		C32,5.027,30.569,3.558,28.817,3.558z M30.594,17.234c0,0.989-0.807,1.795-1.798,1.795h-2.292c-0.187,0-0.368,0.071-0.498,0.201
		l-4.054,4.021c-0.01,0.01-0.06,0.01-0.064,0.01c-0.007,0-0.091-0.001-0.091-0.042v-3.489c0-0.386-0.232-0.7-0.624-0.7h-9.28
		c-0.936,0-1.697-0.759-1.697-1.695V6.685c0-0.925,0.756-1.721,1.681-1.721h16.941c0.976,0,1.776,0.84,1.776,1.816V17.234z"/>
	<path fill="#EFEFEF" d="M2.707,25.006h1.229l3.047,3.059c0.25,0.251,0.583,0.378,0.924,0.378c0.165,0,0.301-0.035,0.461-0.101
		c0.493-0.206,0.774-0.68,0.774-1.211v-2.125h6.156c1.525,0,2.636-1.036,2.636-2.446c0-0.393-0.313-0.713-0.707-0.713
		c-0.384,0-0.698,0.322-0.698,0.716c0,0.713-0.618,1.036-1.23,1.036H8.507c-0.389,0-0.771,0.287-0.771,0.681v2.604l-3.044-3.091
		c-0.13-0.131-0.278-0.193-0.466-0.193H2.707c-0.718,0-1.301-0.605-1.301-1.323v-8.288c0-0.709,0.578-1.287,1.287-1.287h3.985
		c0.389,0,0.703-0.314,0.703-0.703s-0.314-0.703-0.703-0.703H2.693C1.207,11.294,0,12.501,0,13.987v8.288
		C0,23.763,1.216,25.006,2.707,25.006z"/>
</g>
</svg>
