<?xml version="1.0" encoding="utf-8"?>
<!-- Generator: Adobe Illustrator 16.0.3, SVG Export Plug-In . SVG Version: 6.00 Build 0)  -->
<!DOCTYPE svg PUBLIC "-//W3C//DTD SVG 1.1//EN" "http://www.w3.org/Graphics/SVG/1.1/DTD/svg11.dtd">
<svg version="1.1" id="图层_1" xmlns="http://www.w3.org/2000/svg" xmlns:xlink="http://www.w3.org/1999/xlink" x="0px" y="0px"
	 width="32px" height="32px" viewBox="0 0 32 32" enable-background="new 0 0 32 32" xml:space="preserve">
<path fill="#EFEFEF" d="M19.474,3.916c-0.199-0.177-0.485-0.223-0.729-0.112c-0.247,0.109-0.404,0.351-0.404,0.622v5.911
	c-6.063,0.205-11.126,3.16-14.675,8.581c-2.755,4.202-3.617,8.347-3.651,8.52c-0.066,0.33,0.114,0.656,0.428,0.773
	c0.078,0.028,0.158,0.046,0.24,0.046c0.238,0,0.469-0.129,0.589-0.348c4-7.069,9.616-7.806,17.069-7.844V26.8
	c0,0.271,0.159,0.517,0.408,0.624c0.248,0.108,0.534,0.061,0.736-0.124l12.297-11.388c0.141-0.132,0.22-0.313,0.219-0.506
	c-0.003-0.192-0.086-0.374-0.229-0.503L19.474,3.916z M19.703,25.241v-5.858c0-0.375-0.307-0.679-0.682-0.679
	c-6.54,0-12.058,0.417-16.301,4.905c2.042-4.748,6.712-11.924,16.301-11.924c0.375,0,0.682-0.304,0.682-0.679V5.946l10.603,9.474
	L19.703,25.241z"/>
</svg>
