<?xml version="1.0" encoding="utf-8"?>
<!-- Generator: Adobe Illustrator 16.0.3, SVG Export Plug-In . SVG Version: 6.00 Build 0)  -->
<!DOCTYPE svg PUBLIC "-//W3C//DTD SVG 1.1//EN" "http://www.w3.org/Graphics/SVG/1.1/DTD/svg11.dtd">
<svg version="1.1" id="图层_1" xmlns="http://www.w3.org/2000/svg" xmlns:xlink="http://www.w3.org/1999/xlink" x="0px" y="0px"
	 width="32px" height="32px" viewBox="0 0 32 32" enable-background="new 0 0 32 32" xml:space="preserve">
<path fill="#EFEFEF" d="M29.362,4.138c-3.515-3.515-9.211-3.515-12.729,0L2.047,18.556c-2.729,2.727-2.729,7.168,0,9.897
	c2.73,2.727,7.17,2.727,9.898,0l14.589-14.417c1.953-1.953,1.953-5.117,0-7.069c-1.953-1.953-5.121-1.953-7.069,0L8.498,17.934
	c-0.391,0.393-0.391,1.021,0,1.414c0.391,0.391,1.021,0.391,1.412,0L20.879,8.379c1.17-1.168,3.073-1.168,4.243,0
	c1.167,1.17,1.167,3.074,0,4.243l-14.59,14.416c-1.953,1.953-5.117,1.953-7.07,0c-1.951-1.952-1.951-5.115,0-7.068L17.908,5.692
	c2.734-2.734,7.168-2.734,9.896,0c2.738,2.735,2.738,7.166,0.004,9.9L16.982,26.418c-0.393,0.392-0.393,1.022,0,1.413
	c0.392,0.391,1.021,0.391,1.413,0l10.967-10.968C32.879,13.351,32.879,7.653,29.362,4.138z"/>
</svg>
