<?xml version="1.0" encoding="utf-8"?>
<!-- Generator: Adobe Illustrator 16.0.3, SVG Export Plug-In . SVG Version: 6.00 Build 0)  -->
<!DOCTYPE svg PUBLIC "-//W3C//DTD SVG 1.1//EN" "http://www.w3.org/Graphics/SVG/1.1/DTD/svg11.dtd">
<svg version="1.1" id="图层_1" xmlns="http://www.w3.org/2000/svg" xmlns:xlink="http://www.w3.org/1999/xlink" x="0px" y="0px"
	 width="32px" height="32px" viewBox="0 0 32 32" enable-background="new 0 0 32 32" xml:space="preserve">
<path fill="#FE3824" d="M16,0C7.161,0,0,7.16,0,15.999S7.161,32,16,32c8.84,0,16-7.162,16-16.001S24.84,0,16,0z M22.464,20.033
	c0.665,0.678,0.67,1.754,0.003,2.431c-0.677,0.667-1.752,0.669-2.432-0.002L16,18.429l-4.034,4.033
	c-0.675,0.668-1.757,0.672-2.432,0.002c-0.67-0.674-0.672-1.75,0.003-2.431l4.034-4.034l-4.034-4.033
	c-0.673-0.675-0.676-1.757-0.003-2.433c0.671-0.67,1.751-0.672,2.432,0.004L16,13.571l4.035-4.034
	c0.677-0.667,1.753-0.677,2.432-0.004c0.665,0.672,0.667,1.752-0.003,2.433l-4.047,4.033L22.464,20.033z"/>
</svg>
