<?xml version="1.0" encoding="UTF-8" standalone="no"?>
<svg width="131px" height="124px" viewBox="0 0 131 124" version="1.1" xmlns="http://www.w3.org/2000/svg" xmlns:xlink="http://www.w3.org/1999/xlink">
    <!-- Generator: Sketch 3.8.2 (29753) - http://www.bohemiancoding.com/sketch -->
    <title>XMLID_330_</title>
    <desc>Created with Sketch.</desc>
    <defs>
        <path d="M52.1415107,45.7378423 C32.2238476,74.7328106 29.2524705,23.9394969 28.5218442,27.1240808 C27.7912178,30.3086646 25.7300443,28.7591555 24.8712223,25.9774736 C18.9750897,6.88019141 29.3378485,-20.0793759 36.2096322,-19.8515975 C43.3508976,-19.3960407 53.0522392,-6.41267218 53.0522392,9.9873723 C53.0522392,26.3874168 54.6147384,42.1374621 52.1415107,45.7378423 Z" id="path-1"></path>
    </defs>
    <g id="登录注册" stroke="none" stroke-width="1" fill="none" fill-rule="evenodd">
        <g id="05-邮件首页无内容" transform="translate(-299.000000, -469.000000)">
            <g id="XMLID_330_" transform="translate(281.000000, 469.000000)">
                <g transform="translate(0.000000, 13.000000)">
                    <g id="XMLID_341_-Copy" transform="translate(18.110497, 68.313433)">
                        <g id="XMLID_343_">
                            <g id="XMLID_344_">
                                <path d="M65.6470162,21.0504788 C59.3866824,7.87306145 65.4160119,-5.17592795e-09 82.5556675,0 C99.6953231,5.17592817e-09 70.7911856,26.8546615 65.6470162,21.0504788 Z" id="XMLID_345_-Copy-2" fill="#EBEBEB"></path>
                                <path d="M74.427069,9.87424536 C74.427069,9.87424536 75.5344582,6.75066994 73.253152,5.50941894 C70.9718457,4.26816795 69.9984689,5.77212691 68.9919212,7.15164293 C73.0585012,7.15164292 74.427069,9.87424536 74.427069,9.87424536 Z" id="XMLID_340_-Copy" fill="#AAAAAA" transform="translate(71.843853, 7.460879) rotate(-25.000000) translate(-71.843853, -7.460879) "></path>
                                <g id="XMLID_340_-Copy" transform="translate(38.690608, 4.925373)">
                                    <mask id="mask-2" fill="white">
                                        <use xlink:href="#path-1"></use>
                                    </mask>
                                    <use id="Mask" fill="#C3C3C3" transform="translate(38.331844, 17.431268) rotate(-87.000000) translate(-38.331844, -17.431268) " xlink:href="#path-1"></use>
                                    <path d="M45.9472213,27.3661381 C45.9472213,27.3661381 49.7292645,28.6909773 52.2436349,29.6221693 C49.7292645,27.9734389 46.4480584,26.1755986 41.8695726,20.2291967 C41.8695726,22.542686 45.9472213,27.3661381 45.9472213,27.3661381 Z" fill="#AAAAAA" mask="url(#mask-2)" transform="translate(47.056604, 24.925683) rotate(-25.000000) translate(-47.056604, -24.925683) "></path>
                                </g>
                                <path d="M116.312353,34.936078 C89.7579793,38.6140747 82.1557212,21.5729162 77.4565821,14.083488 C74.4343868,9.26675148 71.0844896,-1.38195736 87.774478,0.153614253 C104.464466,1.68918586 104.44879,-1.10618777 114.458682,1.03623727 C124.468575,3.17866232 142.866726,31.2580813 116.312353,34.936078 Z" id="XMLID_345_-Copy" fill="#EBEBEB"></path>
                                <path d="M50.2516468,37.2785965 C32.6283225,48.0560562 8.53506422,37.2555441 3.39089481,31.4513614 C-0.552968396,26.8421574 -2.61270952,12.3146215 12.1841812,12.4853327 L33.035902,22.0503438 C33.035902,21.8796325 67.8749711,26.5011367 50.2516468,37.2785965 Z" id="XMLID_345_-Copy" fill="#EBEBEB"></path>
                                <path d="M24.1381763,26.0821801 C24.1381763,26.0821801 28.8470835,24.2798653 25.693251,23.8744016 C22.5394184,23.4689378 19.1019568,22.4794425 16.1864519,25.0598887 C20.2530319,25.0598887 24.1381763,26.0821801 24.1381763,26.0821801 Z" id="XMLID_340_-Copy" fill="#AAAAAA" transform="translate(21.483628, 24.714192) rotate(-25.000000) translate(-21.483628, -24.714192) "></path>
                            </g>
                        </g>
                    </g>
                    <ellipse id="XMLID_340_" fill="#AAAAAA" transform="translate(76.797410, 85.354175) rotate(-37.000000) translate(-76.797410, -85.354175) " cx="76.7974104" cy="85.3541753" rx="12.0030619" ry="5.97489397"></ellipse>
                    <g id="Group-3" transform="translate(54.240082, 55.452397) rotate(-41.000000) translate(-54.240082, -55.452397) translate(17.240082, 15.452397)">
                        <path d="M73.7454532,46.444906 C73.7454532,66.2474118 57.9700003,77.8557772 37.0503781,79.3921785 C12.7013096,81.2700023 0.526775305,65.735278 0.0123583649,49.1762862 C-0.502058576,29.0323579 20.4175637,-0.159266926 29.8485409,0.182155586 C37.0503781,0.523578099 34.4782934,10.0834085 39.2795182,10.424831 C45.1095768,10.7662535 43.3948537,2.91353569 48.7104954,3.76709197 C59.8561958,5.64491579 73.7454532,29.8859142 73.7454532,46.444906 L73.7454532,46.444906 Z" id="XMLID_339_" fill="#C3C3C3"></path>
                        <path d="M67.2295053,46.7863286 C67.2295053,60.9553628 53.3402479,72.5637283 35.5071273,73.5879958 C18.8743128,74.6122633 6.01388934,62.3210529 6.01388934,48.1520186 C6.01388934,33.9829843 16.6451728,24.9352878 35.5071273,26.8131116 C52.1399417,28.5202241 67.2295053,32.7880055 67.2295053,46.7863286 L67.2295053,46.7863286 Z" id="XMLID_338_" fill="#FFFFFF" opacity="0.6"></path>
                        <path d="M50.7681632,46.2741948 L22.6467037,46.2741948 C20.7605083,46.2741948 19.0457852,44.7377935 19.0457852,42.6892584 L19.0457852,42.6892584 C19.0457852,40.8114346 20.589036,39.104322 22.6467037,39.104322 L50.7681632,39.104322 C52.6543586,39.104322 54.3690817,40.6407233 54.3690817,42.6892584 L54.3690817,42.6892584 C54.1976094,44.7377935 52.6543586,46.2741948 50.7681632,46.2741948 L50.7681632,46.2741948 Z" id="XMLID_337_" fill="#FFFFFF" opacity="0.8"></path>
                        <g id="XMLID_331_" transform="translate(28.470583, 51.213377)">
                            <path d="M15.6101597,2.23069066 C15.6101597,6.32776081 12.1807134,9.74198594 8.06537792,9.74198594 C3.95004239,9.74198594 0.520596123,6.32776081 0.520596123,2.23069066 C0.520596123,-1.86637949 3.95004239,1.37713438 8.06537792,1.37713438 C12.3521858,1.37713438 15.6101597,-2.03709075 15.6101597,2.23069066 L15.6101597,2.23069066 Z" id="XMLID_336_" fill="#AAAAAA"></path>
                            <path d="M2.7497362,1.71855689 C2.7497362,3.08424694 3.95004239,4.27922574 5.3218209,4.27922574 C6.69359941,4.27922574 7.8939056,3.08424694 7.8939056,1.71855689 L7.8939056,1.37713438 C5.83623784,1.37713438 4.12151471,0.523578099 2.7497362,0.182155586 C2.7497362,0.352866843 2.57826388,0.694289355 2.57826388,0.865000612 L2.57826388,1.71855689 L2.7497362,1.71855689 Z" id="XMLID_335_" fill="#D1EAFF"></path>
                            <path d="M2.7497362,1.71855689 C2.7497362,3.08424694 3.95004239,4.27922574 5.3218209,4.27922574 C6.69359941,4.27922574 7.8939056,3.08424694 7.8939056,1.71855689 L7.8939056,1.37713438 C5.83623784,1.37713438 4.12151471,0.523578099 2.7497362,0.182155586 C2.7497362,0.352866843 2.57826388,0.694289355 2.57826388,0.865000612 L2.57826388,1.71855689 L2.7497362,1.71855689 Z" id="XMLID_334_" fill="#FFFFFF"></path>
                            <path d="M10.9804072,4.27922574 C12.3521858,4.27922574 13.5524919,3.08424694 13.5524919,1.71855689 L13.5524919,0.865000612 C13.5524919,0.694289355 13.5524919,0.352866843 13.3810196,0.182155586 C12.0092411,0.523578099 10.294518,1.20642312 8.23685023,1.37713438 L8.23685023,1.71855689 C8.40832254,3.08424694 9.60862874,4.27922574 10.9804072,4.27922574 L10.9804072,4.27922574 Z" id="XMLID_333_" fill="#D1EAFF"></path>
                            <path d="M10.9804072,4.27922574 C12.3521858,4.27922574 13.5524919,3.08424694 13.5524919,1.71855689 L13.5524919,0.865000612 C13.5524919,0.694289355 13.5524919,0.352866843 13.3810196,0.182155586 C12.0092411,0.523578099 10.294518,1.20642312 8.23685023,1.37713438 L8.23685023,1.71855689 C8.40832254,3.08424694 9.60862874,4.27922574 10.9804072,4.27922574 L10.9804072,4.27922574 Z" id="XMLID_332_" fill="#FFFFFF"></path>
                        </g>
                    </g>
                </g>
                <path d="M65.9849793,70.1046817 C65.9849793,70.1046817 125.970619,50.1633925 121.791337,19.211028 C117.612055,-11.7413365 69.1828469,-1.6694645 77.5595736,27.4303664 C85.9363003,56.5301974 65.9849793,70.1046817 65.9849793,70.1046817 Z" id="Oval-390" fill-opacity="0.8" fill="#FFFFFF"></path>
                <path d="M118.40918,26.8708519 C116.651974,33.9664167 111,39.2233907 111,39.2233907 C111,39.2233907 114.848601,31.9909944 115.082031,25.4199392 C115.269166,20.1521112 111.833042,14.3683932 115.082031,13.118899 C118.380913,11.8502171 119.857342,21.0231991 118.40918,26.8708519 Z" id="Oval-390-Copy" fill="#FAFAFA"></path>
                <circle id="Oval-395" fill="#FAFAFA" cx="113" cy="10" r="2"></circle>
                <g id="Group-4" transform="translate(96.000000, 31.000000)" font-family="ArialMT, Arial" fill="#C3C3C3" font-weight="normal">
                    <text id="Z" transform="translate(31.624309, 15.082419) rotate(-20.000000) translate(-31.624309, -15.082419) " font-size="24">
                        <tspan x="23.2486188" y="24.9711443">Z</tspan>
                    </text>
                    <text id="Z-Copy" transform="translate(17.809392, 29.120393) rotate(-20.000000) translate(-17.809392, -29.120393) " font-size="14">
                        <tspan x="11.3701657" y="33.2407865">Z</tspan>
                    </text>
                    <text id="Z-Copy-2" transform="translate(5.894401, 37.664850) rotate(-20.000000) translate(-5.894401, -37.664850) " font-size="8.20895522">
                        <tspan x="1.13812155" y="40.5104287">Z</tspan>
                    </text>
                </g>
                <path d="M68.3621441,118.592029 C56.1394905,126.12576 39.9221444,116.862482 34.777975,111.058299 C30.8341118,106.449095 46.7927905,103.908101 59.7914368,105.436858 C72.7900832,106.965616 80.5847976,111.058299 68.3621441,118.592029 Z" id="XMLID_345_-Copy" fill="#EBEBEB"></path>
            </g>
        </g>
    </g>
</svg>